<?xml version="1.0" encoding="UTF-8" standalone="no"?>
<!DOCTYPE svg PUBLIC "-//W3C//DTD SVG 1.1//EN"
 "http://www.w3.org/Graphics/SVG/1.1/DTD/svg11.dtd">
<!-- Generated by graphviz version 2.49.1 (20211004.0028)
 -->
<!-- Pages: 1 -->
<svg width="298pt" height="414pt"
 viewBox="0.00 0.00 297.82 413.58" xmlns="http://www.w3.org/2000/svg" xmlns:xlink="http://www.w3.org/1999/xlink">
<g id="graph0" class="graph" transform="scale(1 1) rotate(0) translate(4 409.58)">
<polygon fill="white" stroke="transparent" points="-4,4 -4,-409.58 293.82,-409.58 293.82,4 -4,4"/>
<!-- lat_long(...) -->
<g id="node1" class="node">
<title>lat_long(...)</title>
<ellipse fill="lightgrey" stroke="lightgrey" cx="200.82" cy="-330.32" rx="68.68" ry="16.03"/>
<text text-anchor="middle" x="200.82" y="-326.62" font-family="Times,serif" font-size="14.00">lat_long(...)</text>
</g>
<!-- longitude -->
<g id="node2" class="node">
<title>longitude</title>
<polygon fill="none" stroke="black" points="193.82,-278.05 109.82,-278.05 109.82,-255.05 193.82,-255.05 193.82,-278.05"/>
<text text-anchor="middle" x="151.82" y="-262.85" font-family="Times,serif" font-size="14.00">longitude</text>
</g>
<!-- lat_long(...)&#45;&gt;longitude -->
<g id="edge1" class="edge">
<title>lat_long(...)&#45;&gt;longitude</title>
<path fill="none" stroke="black" d="M188.71,-314.05C182.01,-305.6 173.63,-295.04 166.55,-286.12"/>
<polygon fill="black" stroke="black" points="169.22,-283.85 160.26,-278.19 163.74,-288.2 169.22,-283.85"/>
</g>
<!-- lattitude -->
<g id="node4" class="node">
<title>lattitude</title>
<polygon fill="none" stroke="black" points="289.82,-278.05 211.82,-278.05 211.82,-255.05 289.82,-255.05 289.82,-278.05"/>
<text text-anchor="middle" x="250.82" y="-262.85" font-family="Times,serif" font-size="14.00">lattitude</text>
</g>
<!-- lat_long(...)&#45;&gt;lattitude -->
<g id="edge3" class="edge">
<title>lat_long(...)&#45;&gt;lattitude</title>
<path fill="none" stroke="black" d="M213.18,-314.05C220.02,-305.6 228.57,-295.04 235.79,-286.12"/>
<polygon fill="black" stroke="black" points="238.64,-288.17 242.21,-278.19 233.2,-283.76 238.64,-288.17"/>
</g>
<!-- local_datetime(...) -->
<g id="node8" class="node">
<title>local_datetime(...)</title>
<ellipse fill="lightgrey" stroke="lightgrey" cx="101.82" cy="-202.79" rx="101.65" ry="16.03"/>
<text text-anchor="middle" x="101.82" y="-199.09" font-family="Times,serif" font-size="14.00">local_datetime(...)</text>
</g>
<!-- longitude&#45;&gt;local_datetime(...) -->
<g id="edge8" class="edge">
<title>longitude&#45;&gt;local_datetime(...)</title>
<path fill="none" stroke="black" d="M143.11,-254.8C136.97,-247.2 128.5,-236.74 120.82,-227.26"/>
<polygon fill="black" stroke="black" points="123.38,-224.86 114.37,-219.29 117.94,-229.26 123.38,-224.86"/>
</g>
<!-- location -->
<g id="node3" class="node">
<title>location</title>
<polygon fill="none" stroke="black" points="237.32,-405.58 164.32,-405.58 164.32,-382.58 237.32,-382.58 237.32,-405.58"/>
<text text-anchor="middle" x="200.82" y="-390.38" font-family="Times,serif" font-size="14.00">location</text>
</g>
<!-- location&#45;&gt;lat_long(...) -->
<g id="edge2" class="edge">
<title>location&#45;&gt;lat_long(...)</title>
<path fill="none" stroke="black" d="M200.82,-382.32C200.82,-375.34 200.82,-365.94 200.82,-357.1"/>
<polygon fill="black" stroke="black" points="204.32,-356.81 200.82,-346.81 197.32,-356.81 204.32,-356.81"/>
</g>
<!-- time(...) -->
<g id="node5" class="node">
<title>time(...)</title>
<ellipse fill="lightgrey" stroke="lightgrey" cx="101.82" cy="-75.26" rx="51.74" ry="16.03"/>
<text text-anchor="middle" x="101.82" y="-71.56" font-family="Times,serif" font-size="14.00">time(...)</text>
</g>
<!-- local_time -->
<g id="node6" class="node">
<title>local_time</title>
<polygon fill="none" stroke="black" points="146.32,-23 57.32,-23 57.32,0 146.32,0 146.32,-23"/>
<text text-anchor="middle" x="101.82" y="-7.8" font-family="Times,serif" font-size="14.00">local_time</text>
</g>
<!-- time(...)&#45;&gt;local_time -->
<g id="edge4" class="edge">
<title>time(...)&#45;&gt;local_time</title>
<path fill="none" stroke="black" d="M101.82,-59C101.82,-51.25 101.82,-41.72 101.82,-33.31"/>
<polygon fill="black" stroke="black" points="105.32,-33.14 101.82,-23.14 98.32,-33.14 105.32,-33.14"/>
</g>
<!-- local_datetime -->
<g id="node7" class="node">
<title>local_datetime</title>
<polygon fill="none" stroke="black" points="161.82,-150.53 41.82,-150.53 41.82,-127.53 161.82,-127.53 161.82,-150.53"/>
<text text-anchor="middle" x="101.82" y="-135.33" font-family="Times,serif" font-size="14.00">local_datetime</text>
</g>
<!-- local_datetime&#45;&gt;time(...) -->
<g id="edge5" class="edge">
<title>local_datetime&#45;&gt;time(...)</title>
<path fill="none" stroke="black" d="M101.82,-127.27C101.82,-120.29 101.82,-110.88 101.82,-102.05"/>
<polygon fill="black" stroke="black" points="105.32,-101.76 101.82,-91.76 98.32,-101.76 105.32,-101.76"/>
</g>
<!-- local_datetime(...)&#45;&gt;local_datetime -->
<g id="edge6" class="edge">
<title>local_datetime(...)&#45;&gt;local_datetime</title>
<path fill="none" stroke="black" d="M101.82,-186.52C101.82,-178.77 101.82,-169.24 101.82,-160.83"/>
<polygon fill="black" stroke="black" points="105.32,-160.67 101.82,-150.67 98.32,-160.67 105.32,-160.67"/>
</g>
<!-- datetime -->
<g id="node9" class="node">
<title>datetime</title>
<polygon fill="none" stroke="black" points="91.82,-278.05 11.82,-278.05 11.82,-255.05 91.82,-255.05 91.82,-278.05"/>
<text text-anchor="middle" x="51.82" y="-262.85" font-family="Times,serif" font-size="14.00">datetime</text>
</g>
<!-- datetime&#45;&gt;local_datetime(...) -->
<g id="edge7" class="edge">
<title>datetime&#45;&gt;local_datetime(...)</title>
<path fill="none" stroke="black" d="M60.53,-254.8C66.68,-247.2 75.15,-236.74 82.82,-227.26"/>
<polygon fill="black" stroke="black" points="85.71,-229.26 89.28,-219.29 80.27,-224.86 85.71,-229.26"/>
</g>
</g>
</svg>
