<?xml version="1.0" encoding="UTF-8" standalone="no"?>
<!DOCTYPE svg PUBLIC "-//W3C//DTD SVG 1.1//EN"
 "http://www.w3.org/Graphics/SVG/1.1/DTD/svg11.dtd">
<!-- Generated by graphviz version 2.49.0 (20210829.0051)
 -->
<!-- Pages: 1 -->
<svg width="155pt" height="159pt"
 viewBox="0.00 0.00 155.08 158.53" xmlns="http://www.w3.org/2000/svg" xmlns:xlink="http://www.w3.org/1999/xlink">
<g id="graph0" class="graph" transform="scale(1 1) rotate(0) translate(4 154.53)">
<polygon fill="white" stroke="transparent" points="-4,4 -4,-154.53 151.08,-154.53 151.08,4 -4,4"/>
<!-- x_square(...) -->
<g id="node1" class="node">
<title>x_square(...)</title>
<ellipse fill="lightgrey" stroke="lightgrey" cx="73.54" cy="-75.26" rx="73.58" ry="16.03"/>
<text text-anchor="middle" x="73.54" y="-71.56" font-family="Times,serif" font-size="14.00">x_square(...)</text>
</g>
<!-- x^2 -->
<g id="node2" class="node">
<title>x^2</title>
<polygon fill="none" stroke="black" points="100.54,-23 46.54,-23 46.54,0 100.54,0 100.54,-23"/>
<text text-anchor="middle" x="73.54" y="-7.8" font-family="Times,serif" font-size="14.00">x^2</text>
</g>
<!-- x_square(...)&#45;&gt;x^2 -->
<g id="edge1" class="edge">
<title>x_square(...)&#45;&gt;x^2</title>
<path fill="none" stroke="black" d="M73.54,-59C73.54,-51.25 73.54,-41.72 73.54,-33.31"/>
<polygon fill="black" stroke="black" points="77.04,-33.14 73.54,-23.14 70.04,-33.14 77.04,-33.14"/>
</g>
<!-- x -->
<g id="node3" class="node">
<title>x</title>
<polygon fill="none" stroke="black" points="100.54,-150.53 46.54,-150.53 46.54,-127.53 100.54,-127.53 100.54,-150.53"/>
<text text-anchor="middle" x="73.54" y="-135.33" font-family="Times,serif" font-size="14.00">x</text>
</g>
<!-- x&#45;&gt;x_square(...) -->
<g id="edge2" class="edge">
<title>x&#45;&gt;x_square(...)</title>
<path fill="none" stroke="black" d="M73.54,-127.27C73.54,-120.29 73.54,-110.88 73.54,-102.05"/>
<polygon fill="black" stroke="black" points="77.04,-101.76 73.54,-91.76 70.04,-101.76 77.04,-101.76"/>
</g>
</g>
</svg>
